<?xml version="1.0" encoding="utf-8" ?>
<svg xmlns="http://www.w3.org/2000/svg" xmlns:xlink="http://www.w3.org/1999/xlink" viewBox="253 266 468 463">
	<path d="M600.493 414.701C618.852 425.939 636.877 437.752 655.087 449.232L721.1 490.723L605.977 585.953C608.524 573.014 610.554 559.925 612.877 546.935C595.952 548.952 578.174 552.206 561.13 552.098C582.429 575.338 602.184 600.477 622.35 624.727C650.227 658.249 678.476 691.516 705.904 725.405L708.473 728.946L701.989 729.054C689.997 728.584 677.805 729.01 665.795 729.005L593.526 728.957L513.211 624.198C496.707 602.827 479.895 581.646 463.653 560.078C446.826 560.059 429.865 558.845 413.049 558.002L412.998 728.351L352.655 728.324C343.373 728.31 332.751 727.373 323.656 728.558C324.968 721.925 324.075 713.594 324.07 706.776L324.03 660.963L324.026 483.988L612.405 483.983C611.852 480.308 611.32 476.629 610.81 472.948C563.404 473.609 515.914 472.351 468.5 472.172L379.275 472.004C362.661 471.989 345.999 472.227 329.39 471.832C340.244 469.607 351.547 469.028 362.568 467.922L416.839 462.502L607.236 444.165C605.08 434.346 603.162 424.393 600.493 414.701Z"/>
	<path d="M253.997 266.217C269.52 265.638 285.166 266.015 300.703 266.012L383.793 266.005L473.927 265.998C490.067 265.999 506.311 265.629 522.44 266.132C568.407 267.565 614.465 279.644 646.813 314.424C682.597 352.899 689.677 406.775 687.743 457.142C682.021 454.24 676.435 449.876 671.054 446.34L637.742 424.48C629.168 418.862 620.563 413.29 611.929 407.763C607.114 404.665 601.667 401.702 597.305 397.994C592.287 393.729 589.083 386.735 584.409 381.844C574.999 371.995 562.282 364.296 549.049 360.942C532.802 356.824 511.612 358.348 494.746 358.244C461.241 358.037 427.672 358.611 394.178 357.97L294.911 293.997L270.288 278.031C265.127 274.739 258.161 271.369 253.841 267.139L253.997 266.217Z"/>
</svg>
